<?xml version="1.0" standalone="no"?>
<!DOCTYPE svg PUBLIC "-//W3C//DTD SVG 20010904//EN"
 "http://www.w3.org/TR/2001/REC-SVG-20010904/DTD/svg10.dtd">
<svg version="1.0" xmlns="http://www.w3.org/2000/svg"
 width="32.000000pt" height="48.000000pt" viewBox="0 0 32.000000 48.000000"
 preserveAspectRatio="xMidYMid meet">

<g transform="translate(0.000000,48.000000) scale(0.100000,-0.100000)"
fill="#0A3871" stroke="none">
<path d="M85 470 c-53 -18 -85 -55 -85 -99 0 -18 6 -21 40 -21 28 0 40 4 40
14 0 28 30 46 76 46 56 0 89 -28 79 -68 -9 -37 -9 -37 -104 -71 -104 -37 -122
-54 -129 -120 -6 -71 12 -109 62 -132 82 -37 214 -11 236 46 14 37 13 318 -2
349 -6 14 -22 33 -36 42 -30 20 -134 28 -177 14z m145 -310 c0 -58 -3 -71 -19
-80 -30 -15 -97 -12 -115 6 -19 19 -21 64 -3 87 10 14 102 54 130 56 4 1 7
-30 7 -69z"/>
</g>
</svg>
