<?xml version="1.0" standalone="no"?>
<!DOCTYPE svg PUBLIC "-//W3C//DTD SVG 20010904//EN"
 "http://www.w3.org/TR/2001/REC-SVG-20010904/DTD/svg10.dtd">
<svg version="1.0" xmlns="http://www.w3.org/2000/svg"
 width="336.000000pt" height="305.000000pt" viewBox="0 0 336.000000 305.000000"
 preserveAspectRatio="xMidYMid meet">

<g transform="translate(0.000000,305.000000) scale(0.100000,-0.100000)"
fill="#0A3871" stroke="none">
<path d="M2617 3044 c-14 -14 -7 -35 11 -32 9 2 17 10 17 17 0 16 -18 25 -28
15z"/>
<path d="M2380 2845 c0 -9 -13 -30 -29 -46 -22 -22 -39 -29 -67 -29 l-37 0 7
42 7 41 -51 -47 c-55 -51 -104 -76 -195 -95 -92 -20 -128 -65 -139 -174 -1
-15 -8 -33 -14 -39 -7 -7 -12 -16 -12 -22 0 -5 7 -1 15 10 12 16 14 17 15 2 0
-9 -22 -29 -55 -47 -30 -17 -55 -34 -55 -37 0 -2 20 7 45 22 25 14 48 24 51
21 16 -15 -14 -56 -66 -92 -32 -22 -57 -42 -55 -44 2 -2 27 13 54 34 28 20 55
34 61 30 5 -3 10 0 10 8 0 8 6 17 14 20 11 4 16 -3 19 -26 3 -26 4 -23 5 13 2
34 -1 41 -10 32 -19 -19 -26 -14 -20 13 5 29 40 58 56 48 6 -4 5 1 -3 10 -12
15 -11 20 4 37 21 23 97 50 140 50 20 0 55 -15 93 -39 63 -41 68 -50 88 -149
6 -31 7 -31 35 -17 21 11 35 12 55 5 24 -9 26 -14 21 -48 -8 -45 -50 -86 -82
-78 -18 5 -24 -2 -42 -44 -12 -28 -17 -50 -12 -50 5 0 9 5 9 12 0 6 3 9 6 5
13 -12 23 -160 13 -179 -11 -20 -66 -58 -85 -58 -6 0 -17 20 -24 45 -11 39
-16 45 -34 39 -34 -10 -139 -64 -161 -82 -19 -15 -69 -84 -90 -122 -14 -26 10
2 37 43 l25 38 6 -128 c4 -100 11 -148 32 -218 49 -161 65 -229 71 -307 7 -75
7 -76 37 -82 16 -3 42 -6 57 -6 38 0 159 83 235 160 l60 61 0 245 c0 232 1
246 19 260 48 35 105 0 127 -77 7 -27 12 -120 13 -244 1 -259 -8 -292 -94
-348 -78 -51 -180 -100 -267 -130 -62 -20 -84 -35 -148 -96 -58 -55 -82 -71
-104 -71 -17 0 -33 5 -36 10 -3 6 -15 10 -26 10 -31 0 -22 13 29 40 37 20 53
37 76 80 l29 55 -29 -31 c-16 -17 -83 -74 -149 -127 -136 -108 -286 -250 -305
-287 -9 -19 -5 -17 18 10 17 19 31 38 32 42 1 15 254 227 264 220 43 -27 129
-41 141 -22 4 6 11 8 16 4 13 -8 47 23 66 60 8 16 27 39 41 52 25 22 33 23 97
18 82 -7 176 8 259 41 l59 24 -6 -92 c-7 -98 -24 -173 -50 -222 -19 -37 -57
-73 -210 -200 -65 -54 -116 -100 -113 -103 5 -5 267 211 300 247 11 11 23 21
27 21 14 0 70 -62 84 -94 7 -17 14 -26 14 -20 1 7 13 25 29 41 24 26 34 30 87
31 64 1 175 31 213 57 12 9 22 24 22 34 0 16 -12 19 -87 24 -49 3 -115 14
-148 23 -106 29 -100 30 -132 -18 -33 -49 -69 -65 -60 -26 37 160 39 181 39
310 -1 106 3 146 15 175 21 50 29 283 14 421 -13 124 -38 174 -115 232 -65 48
-102 66 -151 76 -22 4 -43 12 -47 18 -4 6 -8 43 -8 82 l0 72 57 28 c32 15 80
50 107 77 l49 49 -7 63 c-5 54 -3 70 19 116 33 71 32 76 -12 71 -32 -4 -35 -3
-28 14 4 11 10 46 12 79 4 60 4 60 -11 28 -15 -33 -38 -41 -64 -25 -10 7 -10
15 -2 36 13 35 13 103 0 111 -5 3 -10 -1 -10 -10z m-460 -349 c0 -2 -7 -7 -16
-10 -8 -3 -12 -2 -9 4 6 10 25 14 25 6z m70 -1466 c-9 -18 -90 -68 -90 -56 0
5 90 76 97 76 2 0 -1 -9 -7 -20z m70 -80 c0 -5 -5 -10 -11 -10 -5 0 -7 5 -4
10 3 6 8 10 11 10 2 0 4 -4 4 -10z"/>
<path d="M1292 2745 c0 -16 2 -22 5 -12 2 9 2 23 0 30 -3 6 -5 -1 -5 -18z"/>
<path d="M1375 2718 l-40 -43 45 40 c25 22 47 41 49 43 2 1 0 2 -5 2 -6 0 -28
-19 -49 -42z"/>
<path d="M304 2685 c-8 -21 2 -45 19 -45 20 0 40 27 33 45 -7 19 -45 20 -52 0z"/>
<path d="M1453 2643 c9 -2 25 -2 35 0 9 3 1 5 -18 5 -19 0 -27 -2 -17 -5z"/>
<path d="M1408 2633 c7 -3 16 -2 19 1 4 3 -2 6 -13 5 -11 0 -14 -3 -6 -6z"/>
<path d="M1048 2533 c17 -2 47 -2 65 0 17 2 3 4 -33 4 -36 0 -50 -2 -32 -4z"/>
<path d="M1320 2533 c24 -3 51 -10 60 -16 13 -11 13 -10 1 6 -10 12 -26 17
-60 15 l-46 -1 45 -4z"/>
<path d="M985 2520 c-3 -5 -2 -10 4 -10 5 0 13 5 16 10 3 6 2 10 -4 10 -5 0
-13 -4 -16 -10z"/>
<path d="M2026 2504 c-22 -22 -20 -31 2 -11 26 23 61 21 91 -5 l26 -23 -24 28
c-28 31 -71 36 -95 11z"/>
<path d="M952 2485 c-17 -37 -14 -45 4 -12 9 16 14 31 11 33 -2 2 -9 -7 -15
-21z"/>
<path d="M1010 2506 c0 -2 11 -6 25 -8 13 -3 22 -1 19 3 -5 9 -44 13 -44 5z"/>
<path d="M1338 2503 c6 -2 18 -2 25 0 6 3 1 5 -13 5 -14 0 -19 -2 -12 -5z"/>
<path d="M1400 2504 c0 -6 10 -35 21 -63 12 -28 19 -54 16 -57 -3 -3 -28 6
-56 20 -28 14 -54 26 -58 26 -12 -1 100 -59 115 -60 6 0 12 6 12 13 0 17 -49
136 -50 121z"/>
<path d="M1178 2493 c108 -4 112 -5 113 -26 1 -20 2 -20 6 -2 3 11 10 23 17
27 6 4 -47 7 -119 6 l-130 -2 113 -3z"/>
<path d="M1071 2469 c-2 -32 24 -40 120 -36 l94 3 -98 2 c-91 2 -98 4 -107 25
-6 15 -9 17 -9 6z"/>
<path d="M1962 2430 c0 -14 2 -19 5 -12 2 6 2 18 0 25 -3 6 -5 1 -5 -13z"/>
<path d="M995 2406 c-66 -32 -53 -33 16 -2 30 14 50 25 44 25 -5 1 -32 -10
-60 -23z"/>
<path d="M911 2394 c-6 -14 -8 -31 -4 -37 18 -30 278 -373 287 -379 6 -4 16
-2 22 5 18 19 236 368 232 372 -2 2 -55 -79 -118 -181 -63 -101 -117 -177
-118 -168 -3 11 -7 12 -17 4 -9 -8 -43 30 -144 165 -72 96 -131 179 -131 185
0 5 6 10 13 10 9 0 9 2 -1 8 -7 5 -10 16 -6 25 10 27 -2 20 -15 -9z"/>
<path d="M1091 2404 c0 -11 3 -14 6 -6 3 7 2 16 -1 19 -3 4 -6 -2 -5 -13z"/>
<path d="M1952 2375 c0 -16 2 -22 5 -12 2 9 2 23 0 30 -3 6 -5 -1 -5 -18z"/>
<path d="M2036 2375 c4 -8 11 -15 16 -15 6 0 5 6 -2 15 -7 8 -14 15 -16 15 -2
0 -1 -7 2 -15z"/>
<path d="M1101 2364 c0 -11 3 -14 6 -6 3 7 2 16 -1 19 -3 4 -6 -2 -5 -13z"/>
<path d="M1266 2344 c-4 -20 -5 -38 -3 -40 3 -3 8 11 11 32 4 20 5 38 3 40 -3
3 -8 -11 -11 -32z"/>
<path d="M2090 2370 c-9 -6 -10 -10 -3 -10 6 0 15 5 18 10 8 12 4 12 -15 0z"/>
<path d="M1853 2295 c0 -33 2 -45 4 -27 2 18 2 45 0 60 -2 15 -4 0 -4 -33z"/>
<path d="M1111 2324 c0 -11 3 -14 6 -6 3 7 2 16 -1 19 -3 4 -6 -2 -5 -13z"/>
<path d="M1941 2293 c0 -24 2 -43 5 -43 9 0 33 33 33 45 0 6 -5 1 -12 -10 -11
-19 -12 -17 -18 15 l-6 35 -2 -42z"/>
<path d="M1121 2290 c0 -8 6 -37 13 -65 8 -27 15 -43 15 -35 0 8 -6 38 -13 65
-8 28 -15 43 -15 35z"/>
<path d="M1681 2279 c-15 -12 -31 -17 -44 -13 -10 3 -30 0 -43 -7 -29 -15 -74
-89 -74 -120 0 -13 -14 -37 -31 -55 -22 -23 -29 -38 -24 -52 9 -30 41 -37 72
-17 22 15 27 15 39 3 12 -11 12 -28 3 -98 -17 -123 -7 -364 16 -413 23 -48 50
-67 98 -67 68 0 140 45 218 135 22 26 11 19 -34 -22 -139 -129 -235 -138 -277
-28 -19 48 -24 251 -10 375 10 98 10 114 -3 127 -13 14 -11 19 19 45 19 17 44
43 55 59 l20 29 -20 26 c-17 22 -19 30 -9 43 11 14 11 14 -2 4 -12 -9 -19 -8
-33 1 -26 20 -21 29 13 23 23 -5 36 -1 57 18 33 29 28 33 -6 4z m-66 -59 c27
-29 15 -32 -20 -4 -20 16 -25 24 -14 24 9 0 24 -9 34 -20z m-19 -21 c10 -11
25 -18 34 -16 9 2 22 -3 30 -11 12 -14 5 -24 -60 -84 -46 -43 -76 -64 -79 -56
-5 15 -21 28 -36 28 -5 -1 -2 -5 8 -11 18 -11 24 -39 7 -39 -5 0 -14 9 -21 21
-9 18 -6 26 23 56 21 22 32 42 30 56 -1 12 3 31 11 41 13 18 15 18 41 -10 l28
-29 -17 28 c-10 15 -21 27 -26 27 -5 0 -9 5 -9 10 0 16 16 12 36 -11z"/>
<path d="M1620 2159 c0 -5 5 -7 10 -4 6 3 10 8 10 11 0 2 -4 4 -10 4 -5 0 -10
-5 -10 -11z"/>
<path d="M1549 2138 c14 -19 46 -24 55 -9 4 5 -3 7 -14 4 -11 -3 -28 1 -38 8
-15 13 -16 12 -3 -3z"/>
<path d="M1252 2270 c0 -14 2 -19 5 -12 2 6 2 18 0 25 -3 6 -5 1 -5 -13z"/>
<path d="M1734 2234 c-18 -14 -18 -15 4 -4 12 6 22 13 22 15 0 8 -5 6 -26 -11z"/>
<path d="M1242 2220 c0 -14 2 -19 5 -12 2 6 2 18 0 25 -3 6 -5 1 -5 -13z"/>
<path d="M1680 2226 c0 -2 7 -7 16 -10 8 -3 12 -2 9 4 -6 10 -25 14 -25 6z"/>
<path d="M1861 2219 c-1 -20 19 -81 30 -94 5 -5 3 11 -5 35 -26 80 -24 77 -25
59z"/>
<path d="M1960 2211 c0 -6 7 -8 16 -4 14 5 16 0 12 -35 -2 -23 0 -42 5 -42 4
0 7 19 5 42 -2 31 -8 44 -20 46 -10 2 -18 -1 -18 -7z"/>
<path d="M1232 2170 c0 -14 2 -19 5 -12 2 6 2 18 0 25 -3 6 -5 1 -5 -13z"/>
<path d="M1151 2154 c0 -11 3 -14 6 -6 3 7 2 16 -1 19 -3 4 -6 -2 -5 -13z"/>
<path d="M1723 2125 c0 -22 2 -30 4 -17 2 12 2 30 0 40 -3 9 -5 -1 -4 -23z"/>
<path d="M2172 2110 c-50 -45 -144 -84 -181 -75 -13 3 -40 23 -59 43 -34 36
-35 36 -13 4 13 -18 36 -39 53 -48 26 -13 37 -14 81 -2 29 7 57 13 64 13 16 0
91 62 103 85 16 30 0 23 -48 -20z m18 -4 c0 -2 -8 -10 -17 -17 -16 -13 -17
-12 -4 4 13 16 21 21 21 13z"/>
<path d="M1222 2115 c0 -16 2 -22 5 -12 2 9 2 23 0 30 -3 6 -5 -1 -5 -18z"/>
<path d="M1161 2114 c0 -11 3 -14 6 -6 3 7 2 16 -1 19 -3 4 -6 -2 -5 -13z"/>
<path d="M1171 2074 c0 -11 3 -14 6 -6 3 7 2 16 -1 19 -3 4 -6 -2 -5 -13z"/>
<path d="M1212 2060 c0 -14 2 -19 5 -12 2 6 2 18 0 25 -3 6 -5 1 -5 -13z"/>
<path d="M1706 2063 c-6 -14 -5 -15 5 -6 7 7 10 15 7 18 -3 3 -9 -2 -12 -12z"/>
<path d="M1181 2034 c0 -11 3 -14 6 -6 3 7 2 16 -1 19 -3 4 -6 -2 -5 -13z"/>
<path d="M2881 1982 c-8 -15 -7 -23 4 -32 21 -18 47 -4 43 22 -4 29 -34 35
-47 10z"/>
<path d="M1703 1915 c0 -27 2 -38 4 -22 2 15 2 37 0 50 -2 12 -4 0 -4 -28z"/>
<path d="M1712 1820 c0 -19 2 -27 5 -17 2 9 2 25 0 35 -3 9 -5 1 -5 -18z"/>
<path d="M1821 1753 c-19 -27 -25 -40 -15 -31 18 16 59 78 51 78 -2 0 -18 -21
-36 -47z"/>
<path d="M1723 1720 c0 -30 2 -43 4 -27 2 15 2 39 0 55 -2 15 -4 2 -4 -28z"/>
<path d="M324 1706 c-15 -40 21 -80 54 -60 37 24 21 74 -25 74 -13 0 -26 -6
-29 -14z"/>
<path d="M1756 1674 c-15 -14 -26 -27 -24 -29 2 -3 17 9 33 25 35 36 30 39 -9
4z"/>
<path d="M1430 1525 c0 -8 7 -15 15 -15 8 0 15 7 15 15 0 8 -7 15 -15 15 -8 0
-15 -7 -15 -15z"/>
<path d="M3182 1401 c-19 -11 -11 -45 11 -49 9 -2 20 4 23 13 9 21 -16 47 -34
36z"/>
<path d="M1967 1183 c-14 -13 -6 -23 34 -42 25 -12 36 -15 29 -6 -6 7 -22 16
-36 19 -17 5 -24 12 -20 21 6 16 3 19 -7 8z"/>
<path d="M1998 1183 c6 -2 18 -2 25 0 6 3 1 5 -13 5 -14 0 -19 -2 -12 -5z"/>
<path d="M1610 1085 c-11 -13 -11 -19 3 -33 20 -19 41 -5 35 24 -4 24 -22 28
-38 9z"/>
<path d="M2029 1003 l-24 -28 28 24 c25 23 32 31 24 31 -2 0 -14 -12 -28 -27z"/>
<path d="M2130 1000 c10 -6 11 -12 5 -18 -6 -5 -57 -50 -116 -99 -124 -107
-196 -193 -245 -297 -35 -73 -36 -81 -32 -156 4 -66 2 -80 -11 -83 -10 -3 -8
-5 6 -6 12 0 27 -10 33 -22 13 -23 67 -59 90 -59 8 0 -4 9 -27 21 -126 62
-107 267 41 448 52 64 88 97 225 211 47 39 60 55 50 61 -8 5 -18 9 -24 9 -5 0
-3 -5 5 -10z"/>
<path d="M1975 959 c-4 -6 -5 -13 -2 -16 7 -7 27 6 27 18 0 12 -17 12 -25 -2z"/>
<path d="M107 923 c-4 -3 -7 -12 -7 -20 0 -15 26 -18 34 -4 7 11 -18 33 -27
24z"/>
<path d="M2549 604 c-54 -57 -236 -175 -424 -275 -98 -53 -110 -67 -16 -20
176 89 460 278 475 316 8 22 4 19 -35 -21z"/>
<path d="M1521 574 c0 -11 3 -14 6 -6 3 7 2 16 -1 19 -3 4 -6 -2 -5 -13z"/>
<path d="M1513 505 c0 -27 2 -38 4 -22 2 15 2 37 0 50 -2 12 -4 0 -4 -28z"/>
<path d="M1521 434 c0 -11 3 -14 6 -6 3 7 2 16 -1 19 -3 4 -6 -2 -5 -13z"/>
<path d="M1557 369 c12 -12 24 -21 27 -18 2 2 -8 13 -22 23 l-27 19 22 -24z"/>
<path d="M1608 343 c7 -3 16 -2 19 1 4 3 -2 6 -13 5 -11 0 -14 -3 -6 -6z"/>
<path d="M1653 333 c9 -2 23 -2 30 0 6 3 -1 5 -18 5 -16 0 -22 -2 -12 -5z"/>
<path d="M1920 260 l-45 -7 40 -1 c22 0 51 4 65 8 32 10 5 10 -60 0z"/>
</g>
</svg>
